Coordinates
version=1
nRows=11
nColumns=63
inDegrees=yes

Units are S.I. units (second, meters, Newtons, ...)
If the header above contains a line with 'inDegrees', this indicates whether rotational values are in degrees (yes) or radians (no).

endheader
time	pelvis_tilt	pelvis_list	pelvis_rotation	pelvis_tx	pelvis_ty	pelvis_tz	hip_flexion_r	hip_adduction_r	hip_rotation_r	knee_angle_r	knee_angle_r_beta	ankle_angle_r	subtalar_angle_r	mtp_angle_r	hip_flexion_l	hip_adduction_l	hip_rotation_l	knee_angle_l	knee_angle_l_beta	ankle_angle_l	subtalar_angle_l	mtp_angle_l	L5_S1_Flex_Ext	L5_S1_Lat_Bending	L5_S1_axial_rotation	L4_L5_Flex_Ext	L4_L5_Lat_Bending	L4_L5_axial_rotation	L3_L4_Flex_Ext	L3_L4_Lat_Bending	L3_L4_axial_rotation	L2_L3_Flex_Ext	L2_L3_Lat_Bending	L2_L3_axial_rotation	L1_L2_Flex_Ext	L1_L2_Lat_Bending	L1_L2_axial_rotation	L1_T12_Flex_Ext	L1_T12_Lat_Bending	L1_T12_axial_rotation	Abs_r3	Abs_r2	Abs_r1	Abs_t1	Abs_t2	neck_flexion	neck_bending	neck_rotation	arm_flex_r	arm_add_r	arm_rot_r	elbow_flex_r	pro_sup_r	wrist_flex_r	wrist_dev_r	arm_flex_l	arm_add_l	arm_rot_l	elbow_flex_l	pro_sup_l	wrist_flex_l	wrist_dev_l
      3.28333333	      2.56067396	     14.14928736	    100.68084176	      0.16962238	      1.01947939	      0.44494702	    -14.47583497	      5.53082720	     -9.20524543	      8.21196196	      0.14332577	     27.72200313	    -12.97861437	      0.00000000	    -15.41340192	     -7.30251556	     24.46741031	      1.86167208	      0.03249231	     28.70949931	     -4.00352647	      0.00000000	      0.00533107	     -0.18306152	     -3.07723607	      0.00990032	     -0.24347182	     -3.26956332	      0.00875841	     -0.44509578	     -3.26956332	      0.00609288	     -0.44509578	     -2.69258156	      0.00495043	     -0.37329905	     -2.50025431	      0.00304617	     -0.28356229	     -2.30792705	      0.03807928	     -2.07082853	    -17.11466385	      0.00000000	      0.00000000	    -16.43108972	    -18.72623733	     17.51739110	     34.19717487	      7.03035897	      6.29183599	    140.21504036	     89.24773443	     11.00484508	     16.06462166	     16.67259811	     -3.85911860	     40.22560057	     85.34341292	     76.19303907	    -11.17578651	     10.02443011
      3.30000000	      2.44835377	     14.13911419	    100.26726777	      0.16975668	      1.01918989	      0.44460817	    -14.51354172	      5.33946819	     -8.01917697	      8.36165048	      0.14593833	     27.11001485	    -14.01614746	      0.00000000	    -15.56651167	     -7.02500638	     25.33166945	      1.82846231	      0.03191269	     28.38704216	     -5.85053032	      0.00000000	      0.00494579	     -0.18498723	     -2.92847676	      0.00918482	     -0.24603302	     -3.11150656	      0.00812543	     -0.44977796	     -3.11150656	      0.00565254	     -0.44977796	     -2.56241716	      0.00459266	     -0.37722597	     -2.37938737	      0.00282602	     -0.28654523	     -2.19635757	      0.03532726	     -2.09261259	    -16.28730919	      0.00000000	      0.00000000	    -16.20332120	    -17.89250511	     16.65338328	     34.66034039	      6.93368820	      6.00486251	    140.33273803	     89.26367691	     10.43743383	     15.79827415	     17.06955891	     -3.63399583	     40.68085075	     84.82045192	     77.51287163	    -10.84089208	      8.85858561
      3.31666667	      2.30817920	     14.07950166	    100.01250735	      0.16964976	      1.01878340	      0.44437768	    -14.48329764	      5.10165416	     -7.76355968	      8.55037136	      0.14923213	     26.98514402	    -13.97476178	      0.00000000	    -15.61379598	     -6.75361283	     25.63059329	      1.83763832	      0.03207284	     28.29568456	     -6.60392905	      0.00000000	      0.00606288	     -0.19110805	     -2.81736293	      0.01125938	     -0.25417370	     -2.99344812	      0.00996071	     -0.46466010	     -2.99344812	      0.00692927	     -0.46466010	     -2.46519257	      0.00562999	     -0.38970753	     -2.28910738	      0.00346433	     -0.29602636	     -2.11302220	      0.04330655	     -2.16185244	    -15.66932743	      0.00000000	      0.00000000	    -16.03191052	    -17.21041642	     15.80688724	     35.13210336	      6.86702859	      5.62989157	    140.41141816	     89.29174735	     10.18406519	     15.56706129	     17.30488975	     -3.29425023	     40.77837172	     84.44315375	     78.52211462	    -10.21129467	      8.45813281
      3.33333333	      2.20166915	     13.96717873	     99.53349893	      0.16966609	      1.01832561	      0.44441929	    -14.33256324	      4.80603719	     -7.49858898	      8.79733741	      0.15354250	     27.13448349	    -13.71226209	      0.00000000	    -15.60014679	     -6.43453977	     25.26311425	      1.88818660	      0.03295507	     28.34759257	     -6.80021864	      0.00000000	      0.00887608	     -0.18932821	     -2.67940238	      0.01648377	     -0.25180652	     -2.84686503	      0.01458252	     -0.46033261	     -2.84686503	      0.01014448	     -0.46033261	     -2.34447709	      0.00824233	     -0.38607809	     -2.17701444	      0.00507179	     -0.29326940	     -2.00955179	      0.06340097	     -2.14171858	    -14.90203223	      0.00000000	      0.00000000	    -15.91702424	    -16.67549116	     15.25021676	     35.59264853	      6.84622153	      5.13561988	    140.45094486	     89.32587606	     10.67778557	     15.49965302	     17.60548772	     -3.04184417	     41.01060772	     84.24053561	     78.68756823	     -9.87408246	      8.33921287
      3.35000000	      2.19617085	     13.79595247	     98.81040949	      0.16975667	      1.01785093	      0.44461868	    -14.08405491	      4.51511158	     -7.28543066	      9.02235056	      0.15746972	     27.59117879	    -12.98005657	      0.00000000	    -15.56025237	     -6.13911694	     24.86762540	      1.91235208	      0.03337684	     28.29292319	     -7.33944777	      0.00000000	      0.01629290	     -0.17295305	     -2.54499565	      0.03025755	     -0.23002756	     -2.70405788	      0.02676761	     -0.42051806	     -2.70405788	      0.01862116	     -0.42051806	     -2.22687119	      0.01512959	     -0.35268587	     -2.06780896	      0.00930976	     -0.26790428	     -1.90874674	      0.11637856	     -1.95647954	    -14.15450230	      0.00000000	      0.00000000	    -15.83231814	    -16.32243099	     15.13203969	     36.06945172	      6.81619043	      4.85192341	    140.51723484	     89.35549464	     11.27005088	     15.72218758	     17.66849854	     -2.85766803	     40.97983631	     84.29434622	     78.46108682	     -9.30825184	      8.59216033
      3.36666667	      2.20522012	     13.54990965	     98.15947755	      0.16966681	      1.01735000	      0.44498803	    -13.70805661	      4.18277672	     -7.94427767	      9.30672242	      0.16243295	     28.47319260	    -11.15446053	      0.00000000	    -15.37197741	     -5.86116664	     23.58951567	      1.99781228	      0.03486840	     28.52225425	     -6.60130095	      0.00000000	      0.02907092	     -0.15383816	     -2.48728662	      0.05398760	     -0.20460475	     -2.64274203	      0.04776061	     -0.37404210	     -2.64274203	      0.03322515	     -0.37404210	     -2.17637579	      0.02699526	     -0.31370677	     -2.02092038	      0.01661112	     -0.23829531	     -1.86546496	      0.20765067	     -1.74024801	    -13.83354199	      0.00000000	      0.00000000	    -15.67481307	    -16.13854548	     15.55088791	     36.55901126	      6.86063497	      4.91742683	    140.59566677	     89.36681796	     11.95251811	     16.24365824	     17.41382032	     -2.85947699	     40.65507201	     84.81718587	     78.09885955	     -9.27833662	      9.30729151
      3.38333333	      2.19595861	     13.27225906	     97.77448670	      0.16942015	      1.01695460	      0.44542652	    -13.37581380	      3.93953157	     -8.66957356	      9.40615939	      0.16416845	     29.19465773	     -9.65381497	      0.00000000	    -15.07414756	     -5.64963079	     22.25998082	      2.11374500	      0.03689181	     28.79022345	     -5.51384765	      0.00000000	      0.04248745	     -0.14438182	     -2.52034751	      0.07890345	     -0.19202783	     -2.67786923	      0.06980264	     -0.35104997	     -2.67786923	      0.04855891	     -0.35104997	     -2.20530407	      0.03945385	     -0.29442342	     -2.04778235	      0.02427733	     -0.22364745	     -1.89026063	      0.30348363	     -1.63327607	    -14.01741674	      0.00000000	      0.00000000	    -15.50220931	    -15.91950853	     16.05890362	     36.89533940	      6.89103413	      5.30416202	    140.59456940	     89.36569605	     12.30994233	     16.23109364	     17.04117275	     -3.20230087	     40.38116770	     85.43267892	     76.21951940	     -9.21120230	      9.17148090
      3.40000000	      2.24409253	     12.91009948	     97.10771971	      0.16945851	      1.01648542	      0.44584129	    -12.84496567	      3.60720022	     -9.60479270	      9.74902069	      0.17015251	     30.23894113	     -7.28446184	      0.00000000	    -14.81035094	     -5.39567376	     22.93966171	      2.04965465	      0.03577322	     28.25185718	     -7.75322016	      0.00000000	      0.05730512	     -0.11910471	     -2.65738221	      0.10642134	     -0.15840927	     -2.82346860	      0.09414659	     -0.28959120	     -2.82346860	      0.06549403	     -0.28959120	     -2.32520943	      0.05321354	     -0.24287833	     -2.15912304	      0.03274415	     -0.18449320	     -1.99303666	      0.40932476	     -1.34733632	    -14.77956263	      0.00000000	      0.00000000	    -14.86267137	    -15.84815457	     17.96825834	     37.40555528	      7.32137995	      6.07120935	    140.34397300	     89.31616636	     13.78976908	     17.34687119	     15.69225998	     -3.65018447	     38.67916319	     87.17263613	     76.92102050	    -10.51156729	     10.68545205
      3.41666667	      2.16381101	     12.54401618	     96.59138444	      0.16978420	      1.01625438	      0.44645104	    -12.36066774	      3.32615931	     -9.33838191	      9.95796882	      0.17379934	     30.69025287	     -6.78626252	      0.00000000	    -14.43045498	     -5.08047366	     22.36444316	      2.11913632	      0.03698591	     28.11692805	     -8.08583679	      0.00000000	      0.07229870	     -0.13382217	     -2.81391612	      0.13426592	     -0.17798348	     -2.98978587	      0.11877954	     -0.32537522	     -2.98978587	      0.08263019	     -0.32537522	     -2.46217660	      0.06713658	     -0.27289016	     -2.28630684	      0.04131148	     -0.20729054	     -2.11043709	      0.51642241	     -1.51382312	    -15.65015726	      0.00000000	      0.00000000	    -14.60036717	    -15.20380657	     18.68499840	     37.30000958	      7.49277602	      6.85188346	    140.01491301	     89.26875323	     13.99314178	     17.33848258	     14.28358659	     -4.34081991	     37.11076927	     88.67377885	     76.45062401	    -11.30373658	     10.84876006
      3.43333333	      2.07173836	     12.20330941	     96.53375433	      0.16951341	      1.01614715	      0.44754543	    -11.91617684	      3.10938012	     -9.75170133	     10.14745547	      0.17710651	     30.94718387	     -5.94623216	      0.00000000	    -13.95751852	     -4.87168383	     21.87685928	      2.18032296	      0.03805381	     28.08514424	     -7.90047380	      0.00000000	      0.06689987	     -0.13131885	     -3.18900812	      0.12423975	     -0.17465408	     -3.38832113	      0.10990980	     -0.31928866	     -3.38832113	      0.07645986	     -0.31928866	     -2.79038211	      0.06212322	     -0.26778541	     -2.59106910	      0.03822659	     -0.20341291	     -2.39175609	      0.47785909	     -1.48550515	    -17.73630648	      0.00000000	      0.00000000	    -13.89813591	    -15.03527374	     21.29892915	     37.06331479	      7.87411773	      8.47093935	    139.03161099	     89.23267458	     13.95099887	     16.50360444	     12.39719553	     -5.38803372	     34.69681374	     91.09762861	     75.75473083	    -12.83672089	     12.42876377
      3.45000000	      1.74626774	     11.87193673	     96.47490189	      0.16973982	      1.01617493	      0.44872779	    -11.45263376	      2.69048208	     -9.70827564	     10.44338155	      0.18227139	     31.01408631	     -5.69579067	      0.00000000	    -13.50159702	     -4.43476851	     21.45623532	      2.26063398	      0.03945551	     28.03903567	     -7.76798284	      0.00000000	      0.07381124	     -0.18971822	     -3.45104362	      0.13707485	     -0.25232523	     -3.66673384	      0.12126448	     -0.46128088	     -3.66673384	      0.08435886	     -0.46128088	     -3.01966317	      0.06854111	     -0.38687339	     -2.80397294	      0.04217574	     -0.29387352	     -2.58828271	      0.52722629	     -2.14613043	    -19.19366929	      0.00000000	      0.00000000	    -13.85000778	    -13.98190788	     21.74324726	     36.05426389	      7.93286050	      9.30891873	    138.45684902	     89.20433979	     13.49065281	     16.08316197	     10.81747057	     -6.39434684	     32.69724531	     92.78403682	     75.42094674	    -13.40339890	     12.97865130
